<?xml version="1.0" standalone="no"?>
<!DOCTYPE svg PUBLIC "-//W3C//DTD SVG 20010904//EN"
 "http://www.w3.org/TR/2001/REC-SVG-20010904/DTD/svg10.dtd">
<svg version="1.0" xmlns="http://www.w3.org/2000/svg"
 width="250.000000pt" height="250.000000pt" viewBox="0 0 250.000000 250.000000"
 preserveAspectRatio="xMidYMid meet">
<metadata>
Created by potrace 1.11, written by Peter Selinger 2001-2013
</metadata>
<g transform="translate(0.000000,250.000000) scale(0.100000,-0.100000)"
fill="#000000" stroke="none">
<path d="M1235 2145 c-89 -44 -149 -115 -183 -215 -22 -63 -22 -63 -22 -89 0
-12 -19 -31 -49 -51 -39 -25 -54 -41 -67 -78 -9 -26 -22 -52 -28 -58 -6 -6
-53 -33 -104 -60 -51 -27 -109 -62 -129 -78 -33 -28 -35 -32 -29 -75 7 -54 28
-87 58 -96 13 -3 40 -14 61 -23 34 -15 37 -20 33 -45 -9 -46 3 -76 33 -83 14
-4 42 -19 61 -34 l35 -27 110 22 c99 20 218 25 233 10 13 -13 -150 -103 -264
-144 -86 -32 -85 -46 7 -60 73 -10 143 -6 253 15 43 8 143 42 204 70 29 13 54
24 56 24 2 0 9 -13 15 -30 5 -16 15 -30 22 -30 6 0 40 20 74 45 92 65 162 169
185 272 24 103 6 243 -42 336 -19 38 -19 42 -3 105 29 116 13 270 -39 369
l-16 33 -65 -24 c-83 -30 -166 -80 -213 -129 -55 -56 -69 -62 -84 -35 -6 13
-21 60 -33 106 l-20 83 -50 -26z"/>
<path d="M1366 918 c3 -5 10 -6 15 -3 13 9 11 12 -6 12 -8 0 -12 -4 -9 -9z"/>
<path d="M1833 924 c3 -6 2 -16 -4 -24 -7 -12 -9 -12 -9 -1 0 10 -3 11 -13 2
-10 -8 -17 -7 -25 1 -9 9 -12 9 -12 -1 0 -10 -3 -11 -14 -2 -11 9 -15 9 -19
-1 -3 -8 -6 -5 -6 6 -1 20 -1 20 -16 0 -10 -13 -14 -14 -15 -5 0 10 -3 11 -13
2 -10 -8 -17 -7 -25 1 -9 9 -12 9 -12 -1 0 -10 -3 -11 -14 -2 -11 9 -15 9 -19
-1 -3 -8 -6 -6 -6 6 -1 16 -3 17 -17 5 -18 -15 -51 -18 -76 -6 -12 5 -18 3
-18 -5 0 -10 -3 -9 -9 1 -8 12 -12 12 -24 2 -11 -8 -17 -9 -22 -1 -5 8 -11 8
-21 -1 -11 -9 -14 -9 -14 0 0 8 -6 9 -17 4 -21 -10 -65 -9 -82 1 -6 4 -11 1
-11 -6 0 -8 -3 -9 -8 -3 -11 15 -32 17 -32 3 0 -9 -3 -9 -9 1 -8 12 -12 12
-25 2 -13 -11 -16 -11 -16 0 -1 10 -5 8 -15 -5 -8 -10 -12 -24 -9 -30 3 -6 -2
-2 -10 8 -9 11 -16 24 -16 29 0 5 -7 4 -15 -3 -8 -7 -15 -8 -15 -3 0 5 -7 10
-15 10 -8 0 -15 -5 -15 -11 0 -6 -5 -4 -10 4 -7 11 -12 12 -21 3 -8 -8 -18 -9
-31 -2 -12 6 -18 6 -18 -1 0 -5 -6 -9 -12 -7 -9 1 -14 -15 -16 -51 -2 -36 0
-52 8 -47 5 3 13 -1 16 -10 5 -11 9 -13 14 -6 3 6 6 -16 6 -49 -1 -54 -3 -60
-19 -56 -15 4 -16 2 -6 -10 10 -12 9 -13 -5 -8 -9 3 -16 12 -16 20 0 8 -5 14
-11 14 -6 0 -9 7 -5 15 3 8 0 15 -7 15 -8 0 -6 4 3 10 9 6 10 10 3 10 -7 0
-17 10 -24 21 -9 17 -8 20 3 14 7 -3 5 0 -6 9 -12 10 -17 23 -14 40 4 19 1 23
-10 18 -11 -4 -14 -1 -9 11 3 9 2 17 -4 17 -6 0 -7 4 -4 10 3 6 -1 10 -10 10
-9 0 -13 4 -10 10 3 5 1 10 -4 10 -6 0 -11 -4 -11 -8 0 -12 -74 -9 -82 3 -4 6
-8 2 -8 -7 0 -20 -15 -24 -26 -6 -5 7 -3 8 6 3 8 -5 11 -4 7 2 -3 5 -25 8 -49
6 -24 -2 -67 -4 -96 -5 -51 -1 -52 -1 -53 -32 -2 -47 2 -71 12 -74 11 -4 -21
-62 -34 -62 -5 0 -5 10 -2 21 5 13 3 19 -3 15 -5 -3 -12 3 -15 14 -3 11 -1 18
4 14 5 -3 9 0 9 6 0 6 4 8 10 5 6 -3 7 1 4 9 -3 9 -10 14 -14 11 -11 -7 0 36
13 53 7 9 6 11 -7 6 -9 -3 -16 -1 -16 6 0 6 -4 8 -10 5 -5 -3 -10 -1 -10 6 0
10 -3 10 -12 1 -8 -8 -17 -8 -31 -1 -11 6 -17 7 -13 1 6 -10 -41 -8 -51 2 -4
3 -12 1 -20 -5 -10 -9 -13 -8 -13 2 0 32 -19 -10 -20 -46 -3 -60 -2 -62 28
-68 22 -4 31 -14 41 -44 7 -21 12 -42 11 -47 -1 -5 3 -12 8 -15 6 -3 12 -15
14 -26 1 -11 7 -23 11 -26 5 -4 10 -18 10 -32 1 -14 5 -23 10 -20 4 2 7 -3 7
-11 0 -12 10 -16 38 -16 21 0 44 -6 51 -12 11 -10 13 -10 7 0 -5 8 0 12 13 12
12 0 21 5 21 10 0 6 5 10 11 10 5 0 7 -4 4 -10 -5 -9 41 -16 69 -11 5 1 13 -4
17 -11 7 -10 9 -10 9 0 0 8 17 12 51 12 32 0 48 4 44 10 -4 6 -1 18 7 27 9 12
9 15 1 9 -9 -5 -12 0 -11 18 1 13 5 23 9 20 4 -2 9 1 11 7 2 6 4 -10 5 -36 1
-26 4 -50 7 -53 3 -3 49 -6 102 -6 84 -1 97 -3 100 -18 2 -14 -5 -18 -31 -18
-18 0 -36 6 -38 13 -4 10 -6 9 -6 0 -1 -7 -6 -13 -12 -13 -6 0 -8 8 -5 18 6
16 5 16 -8 0 -10 -14 -28 -18 -75 -18 l-61 0 0 -34 c0 -19 5 -38 10 -41 6 -3
10 -11 10 -16 0 -6 -5 -7 -11 -4 -7 5 -9 -8 -7 -37 l3 -43 60 -1 c33 0 66 -3
72 -7 6 -4 14 -3 18 3 3 5 11 10 17 10 6 0 5 -7 -3 -17 -12 -16 -12 -17 2 -5
17 13 45 12 69 -3 13 -8 13 -7 1 8 -17 22 -2 22 29 0 24 -16 24 -16 11 0 -13
16 -12 18 12 13 15 -2 32 -8 38 -12 7 -4 9 -3 6 3 -4 6 0 16 8 23 14 11 19 7
16 -12 0 -4 6 -5 14 -2 9 4 15 0 15 -7 0 -9 3 -10 8 -4 4 6 14 10 22 10 8 0
18 -4 22 -10 5 -7 8 -6 8 1 0 6 14 10 30 10 24 0 29 -3 25 -15 -4 -14 -4 -14
7 -1 8 9 31 15 55 16 38 1 41 -1 30 -15 -11 -14 -10 -15 6 -1 22 16 150 21
181 7 14 -7 16 -6 11 3 -5 8 -3 11 6 8 23 -8 40 19 42 65 1 23 9 48 17 55 13
10 12 11 -5 5 -17 -6 -18 -4 -8 8 17 21 -2 39 -39 39 -16 0 -28 6 -28 13 0 9
-2 9 -9 -1 -12 -20 -84 -11 -87 11 -3 24 53 27 68 4 6 -9 8 -9 8 1 0 19 28 14
33 -5 4 -16 5 -16 6 -1 1 13 13 16 68 17 36 0 71 5 77 11 7 7 6 10 -3 10 -11
0 -11 3 -1 15 10 12 10 15 0 15 -10 0 -10 3 0 15 10 12 10 15 -1 15 -11 0 -11
2 1 10 13 8 12 10 -5 11 -11 1 -24 1 -28 0 -5 -1 -6 3 -2 9 3 5 1 10 -4 10 -6
0 -11 7 -11 16 0 9 5 12 13 8 10 -6 10 -4 0 7 -7 7 -13 22 -13 32 0 16 6 18
49 15 46 -3 78 11 63 28 -4 4 -1 4 6 0 7 -5 11 -10 8 -13 -3 -3 2 -12 10 -20
8 -8 11 -19 8 -25 -4 -6 -3 -9 2 -6 5 3 14 0 21 -7 10 -11 10 -15 0 -18 -9 -4
-9 -6 1 -6 6 -1 12 -6 12 -13 0 -6 -3 -9 -6 -5 -12 12 -33 -21 -27 -42 3 -13
-2 -30 -13 -44 -16 -18 -16 -19 -1 -8 14 11 17 11 17 -2 0 -19 30 -23 118 -19
57 3 63 6 59 23 -3 10 0 19 5 19 6 0 4 8 -3 17 -10 11 -10 14 -1 9 6 -4 12 -4
12 1 -1 13 -24 39 -40 46 -9 3 -10 6 -3 6 7 1 10 8 6 18 -5 12 -2 15 10 10 9
-3 19 -1 23 5 4 7 3 8 -4 4 -7 -4 -12 -1 -12 8 0 8 7 19 16 24 9 5 17 13 17
18 1 5 8 8 15 8 10 -2 10 1 0 14 -11 13 -10 15 10 10 12 -4 22 -2 22 4 0 5 5
6 11 3 7 -5 9 6 7 31 -2 25 2 44 12 52 11 10 11 11 1 6 -9 -4 -21 2 -33 17
-15 20 -17 21 -11 4 6 -18 5 -18 -10 -6 -14 11 -17 11 -17 0 0 -10 -3 -10 -12
-1 -13 13 -32 16 -24 4 2 -4 -14 -7 -37 -5 -52 4 -56 4 -87 0 -14 -2 -31 1
-37 6 -9 6 -13 5 -13 -2 0 -7 -5 -9 -10 -6 -6 4 -8 10 -5 15 3 5 0 12 -6 16
-7 4 -9 3 -6 -2z m-1107 -149 c-8 -7 -13 -14 -11 -17 7 -7 -16 -68 -25 -68 -5
0 -7 -9 -5 -21 4 -17 2 -19 -11 -9 -11 10 -12 16 -2 27 7 8 14 24 15 36 2 12
8 24 14 28 6 3 10 9 10 13 -3 18 0 23 15 23 15 0 15 -1 0 -12z m646 -17 c3
-78 1 -95 -14 -95 -9 0 -13 17 -14 49 -1 33 2 46 10 41 7 -4 6 -1 -1 9 -7 8
-10 18 -6 21 14 15 23 5 25 -25z m223 -56 c1 -24 -3 -46 -8 -49 -6 -3 -7 -1
-3 5 4 7 2 12 -3 12 -6 0 -11 -5 -11 -11 0 -8 -5 -7 -15 1 -13 11 -14 10 -9
-3 3 -9 1 -24 -6 -34 -10 -16 -10 -15 -5 5 6 20 -2 27 -27 23 -21 -3 -21 90 0
97 8 2 10 -3 7 -15 -4 -13 -2 -12 6 3 9 17 17 20 42 15 28 -6 31 -10 32 -49z
m-48 -117 c0 -8 -4 -15 -9 -15 -10 0 -11 14 -1 23 9 10 10 9 10 -8z m-279 -41
c7 -2 10 -9 6 -15 -4 -8 -3 -9 5 -5 6 4 9 11 6 16 -2 4 34 7 82 6 74 -1 86 -4
89 -18 2 -14 -5 -18 -32 -18 -20 0 -34 5 -34 13 0 8 -4 7 -10 -3 -8 -13 -13
-13 -31 -2 -11 8 -18 9 -14 3 4 -8 -14 -10 -59 -8 -40 2 -67 -1 -70 -7 -3 -7
-7 -8 -13 -1 -4 6 -35 10 -67 10 -48 0 -60 3 -62 17 -2 15 7 17 57 16 32 -1
62 1 65 5 6 6 51 1 82 -9z m228 -17 c1 -12 -3 -17 -13 -15 -9 2 -17 11 -19 21
-1 12 3 17 13 15 9 -2 17 -11 19 -21z"/>
<path d="M1196 542 c-3 -5 1 -9 9 -9 8 0 12 4 9 9 -3 4 -7 8 -9 8 -2 0 -6 -4
-9 -8z"/>
<path d="M1237 529 c7 -7 15 -10 18 -7 3 3 -2 9 -12 12 -14 6 -15 5 -6 -5z"/>
<path d="M555 780 c3 -5 8 -10 11 -10 2 0 4 5 4 10 0 6 -5 10 -11 10 -5 0 -7
-4 -4 -10z"/>
<path d="M395 740 c-3 -5 -1 -10 4 -10 6 0 11 5 11 10 0 6 -2 10 -4 10 -3 0
-8 -4 -11 -10z"/>
<path d="M1637 529 c7 -7 15 -10 18 -7 3 3 -2 9 -12 12 -14 6 -15 5 -6 -5z"/>
</g>
</svg>
